<svg width="76" height="62" viewBox="0 0 76 62" fill="none" xmlns="http://www.w3.org/2000/svg">
<path d="M17.4893 51.4751C14.4277 51.4751 11.7332 51.1797 9.40576 50.5889C7.09619 49.998 4.94775 49.264 2.96045 48.3867V38.8799H3.87354C5.87874 40.5807 8.08984 41.8877 10.5068 42.8008C12.9238 43.7139 15.2692 44.1704 17.543 44.1704C18.1159 44.1704 18.8678 44.1077 19.7988 43.9824C20.7477 43.8571 21.5086 43.6602 22.0815 43.3916C22.7798 43.0872 23.3706 42.6665 23.854 42.1294C24.3374 41.5744 24.5791 40.8493 24.5791 39.9541C24.5791 38.9515 24.1852 38.1369 23.3975 37.5103C22.6097 36.8836 21.6698 36.4271 20.5776 36.1406C19.217 35.7826 17.7578 35.4424 16.2002 35.1201C14.6605 34.7979 13.2192 34.404 11.8765 33.9385C8.77913 32.8464 6.55908 31.3783 5.21631 29.5342C3.87354 27.6901 3.20215 25.3805 3.20215 22.6055C3.20215 18.8636 4.78662 15.8379 7.95557 13.5283C11.1245 11.2008 15.0812 10.0371 19.8257 10.0371C22.2069 10.0371 24.5701 10.2788 26.9155 10.7622C29.2788 11.2456 31.3914 11.8991 33.2534 12.7227V21.8535H32.3672C30.8812 20.5824 29.064 19.5081 26.9155 18.6309C24.785 17.7536 22.5918 17.3149 20.3359 17.3149C19.4587 17.3149 18.6709 17.3776 17.9727 17.5029C17.2744 17.6283 16.5404 17.87 15.7705 18.228C15.1439 18.5145 14.5978 18.9442 14.1323 19.5171C13.6847 20.0721 13.4609 20.6987 13.4609 21.397C13.4609 22.4175 13.819 23.2321 14.5352 23.8408C15.2692 24.4316 16.6746 24.9688 18.7515 25.4521C20.0942 25.7565 21.3833 26.0519 22.6187 26.3384C23.8719 26.6248 25.2057 27.0187 26.6201 27.52C29.3952 28.5226 31.4541 29.8743 32.7969 31.5752C34.1576 33.2581 34.8379 35.4871 34.8379 38.2622C34.8379 42.2368 33.2713 45.4326 30.1382 47.8496C27.0229 50.2666 22.8066 51.4751 17.4893 51.4751ZM71.979 38.5039C71.979 40.4912 71.603 42.2368 70.8511 43.7407C70.0991 45.2446 69.0876 46.4889 67.8164 47.4736C66.3125 48.6553 64.6564 49.4967 62.8481 49.998C61.0578 50.4993 58.7751 50.75 56 50.75H39.9941V10.7622H54.1201C57.0563 10.7622 59.2764 10.8786 60.7803 11.1113C62.3021 11.3262 63.7254 11.7917 65.0503 12.5078C66.4826 13.2777 67.5479 14.3071 68.2461 15.5962C68.9622 16.8853 69.3203 18.3713 69.3203 20.0542C69.3203 22.0057 68.828 23.7424 67.8433 25.2642C66.8765 26.786 65.5337 27.9049 63.8149 28.6211V28.8359C66.2856 29.3551 68.264 30.4204 69.75 32.0317C71.236 33.6252 71.979 35.7826 71.979 38.5039ZM59.1152 22.0684C59.1152 21.4238 58.9451 20.7614 58.605 20.0811C58.2827 19.4007 57.7725 18.9084 57.0742 18.604C56.4118 18.3175 55.624 18.1654 54.7109 18.1475C53.8158 18.1117 52.473 18.0938 50.6826 18.0938H49.9844V26.5532H51.2466C52.9653 26.5532 54.1649 26.5353 54.8452 26.4995C55.5435 26.4637 56.2596 26.2757 56.9937 25.9355C57.7993 25.5596 58.3543 25.0404 58.6587 24.3779C58.9631 23.7155 59.1152 22.9456 59.1152 22.0684ZM61.6396 38.3159C61.6396 37.0806 61.389 36.1138 60.8877 35.4155C60.3864 34.7173 59.6344 34.1891 58.6318 33.8311C58.0231 33.5983 57.1816 33.473 56.1074 33.4551C55.0511 33.4193 53.6278 33.4014 51.8374 33.4014H49.9844V43.4185H50.5215C53.1354 43.4185 54.9437 43.4006 55.9463 43.3647C56.9489 43.3289 57.9694 43.0872 59.0078 42.6396C59.9209 42.2458 60.5833 41.6729 60.9951 40.9209C61.4248 40.151 61.6396 39.2827 61.6396 38.3159Z" fill="#3B82F6"/>
<path d="M54.5 30C59.1944 30 63 26.1944 63 21.5C63 16.8056 59.1944 13 54.5 13C49.8056 13 46 16.8056 46 21.5C46 26.1944 49.8056 30 54.5 30Z" fill="white" stroke="#60A5FA" stroke-width="2.5"/>
<path d="M50.55 18.78C51.95 16.5133 53.8167 15.9467 56.15 17.08" stroke="black" stroke-miterlimit="10"/>
</svg>